# xmcd CD database file
#
# Track frame offsets:
#	150
#	36016
#	66572
#	88343
#	113429
#	145620
#	164998
#	185642
#	208208
#	228069
#	258482
#	279763
#
# Disc length: 3985 seconds
#
# Revision: 0
# Processed by: cddbd v1.5.2PL0 Copyright (c) Steve Scherf et al.
# Submitted via: CDex 1.51
#
DISCID=af0f8f0c
DTITLE=Pete Oxley - Nicolas Meier - Chasing Tales
DYEAR=2014
DGENRE=Jazz
TTITLE0=The Followers
TTITLE1=Looking West
TTITLE2=Tales
TTITLE3=The Bridge
TTITLE4=Serene
TTITLE5=Chasing Kites
TTITLE6=Riversides
TTITLE7=Compass Points
TTITLE8=Breezin' On
TTITLE9=Libra
TTITLE10=Bluster
TTITLE11=Uzun Ince Bir Yoldayim
EXTD=YEAR: 2014
EXTT0=
EXTT1=
EXTT2=
EXTT3=
EXTT4=
EXTT5=
EXTT6=
EXTT7=
EXTT8=
EXTT9=
EXTT10=
EXTT11=
PLAYORDER=
